<svg width="277" height="277" viewBox="0 0 277 277" fill="none" xmlns="http://www.w3.org/2000/svg">
<circle cx="138.5" cy="138.5" r="71.6929" transform="rotate(-15 138.5 138.5)" fill="#A6F000"/>
<path d="M151.122 123.406L149.442 124.965L143.559 130.428L145.481 123.35L146.309 120.293L146.767 118.599L146.308 118.864L138.274 123.494L136.986 128.243L131.855 131.2L127.09 129.94L119.279 134.442L118.587 134.842L121.133 135.514L123.35 136.102L130.318 137.946L122.73 140.286L120.54 140.96L118.025 141.736L118.733 142.108L126.725 146.293L131.432 144.841L136.682 147.589L138.165 152.282L146.382 156.585L146.852 156.832L146.323 155.16L145.367 152.14L142.976 144.581L148.387 150.496L150.525 152.833L151.708 154.128L151.729 153.597L152.111 144.33L148.788 140.698L149.033 134.778L152.644 131.428L153.016 122.414L153.048 121.615L151.118 123.405L151.122 123.406ZM141.772 142.418L141.74 142.401L141.778 142.271L141.772 142.418ZM141.058 141.349C138.741 142.687 135.776 141.892 134.437 139.573C133.099 137.254 133.892 134.288 136.209 132.95C138.526 131.613 141.491 132.408 142.83 134.727C144.169 137.046 143.375 140.011 141.058 141.349Z" fill="#101010"/>
<path d="M179.216 179.192C179.352 179.319 179.427 179.467 179.442 179.637C179.456 179.813 179.388 179.982 179.237 180.145C179.086 180.307 178.924 180.385 178.75 180.38C178.576 180.381 178.422 180.318 178.286 180.191C178.152 180.067 178.08 179.919 178.068 179.745C178.054 179.575 178.122 179.409 178.273 179.247C178.424 179.085 178.586 179.003 178.76 179.003C178.93 179.005 179.082 179.068 179.216 179.192Z" fill="black"/>
<path d="M149.179 197.041L146.355 197.495C145.714 197.598 145.158 197.587 144.685 197.463C144.208 197.339 143.824 197.104 143.532 196.758C143.236 196.417 143.044 195.969 142.955 195.414C142.892 195.024 142.915 194.653 143.023 194.303C143.128 193.958 143.31 193.648 143.571 193.374C143.828 193.104 144.153 192.881 144.545 192.706L144.842 192.532L147.497 192.106L147.656 193.024L145.652 193.346C145.246 193.411 144.919 193.536 144.672 193.72C144.426 193.907 144.254 194.134 144.156 194.398C144.058 194.662 144.033 194.94 144.08 195.233C144.133 195.562 144.243 195.838 144.412 196.064C144.58 196.289 144.814 196.446 145.113 196.534C145.408 196.627 145.773 196.639 146.206 196.569L147.9 196.297L146.677 188.691L147.808 188.509L149.179 197.041ZM142.822 189.31L145.517 192.844L144.341 193.04L141.626 189.575L141.614 189.504L142.822 189.31Z" fill="black"/>
<path d="M135.903 198.171L136.023 189.53L137.169 189.546L137.048 198.187L135.903 198.171Z" fill="black"/>
<path d="M125.444 196.233L129.721 189.028L130.87 189.246L126.025 197.123L125.284 196.982L125.444 196.233ZM124.555 188.049L125.905 196.321L125.78 197.076L125.04 196.936L123.401 187.83L124.555 188.049ZM124.105 191.22L124.28 190.298L129.05 191.202L128.875 192.124L124.105 191.22Z" fill="black"/>
<path d="M115.844 194.259L115.19 190.405L112.005 192.672L110.771 192.161L114.929 189.25L114.013 184.151L115.258 184.666L115.936 188.601L119.196 186.294L120.441 186.809L116.191 189.772L117.078 194.77L115.844 194.259Z" fill="black"/>
<path d="M104.63 188.549L109.259 181.253L110.227 181.867L105.597 189.163L104.63 188.549Z" fill="black"/>
<path d="M99.4905 174.536L100.118 173.847L104.444 177.787L103.817 178.476L99.4905 174.536ZM94.9991 179.749L104.242 177.603L104.765 178.079L104.189 178.711L94.9662 180.843L94.4396 180.363L94.9991 179.749ZM94.7994 180.691L95.4309 179.998L99.5202 183.722L98.8888 184.415L94.7994 180.691Z" fill="black"/>
<path d="M84.2134 160.611C84.0403 160.679 83.8739 160.683 83.7141 160.622C83.5491 160.56 83.426 160.425 83.3448 160.219C83.2637 160.013 83.2628 159.833 83.3422 159.678C83.4166 159.521 83.5402 159.409 83.7133 159.341C83.8826 159.274 84.0479 159.273 84.2092 159.337C84.3691 159.397 84.4896 159.53 84.5708 159.736C84.652 159.943 84.6554 160.124 84.5811 160.281C84.5053 160.434 84.3827 160.544 84.2134 160.611Z" fill="black"/>
<path d="M77.4453 132.4L86.0576 133.106L85.9655 134.23L77.3531 133.523L77.4453 132.4ZM77.6723 129.631L78.6069 129.708L78.0612 136.362L77.1266 136.286L77.6723 129.631Z" fill="black"/>
<path d="M78.9514 123.413L79.7602 120.669C79.9437 120.047 80.1935 119.549 80.5097 119.176C80.827 118.8 81.2046 118.554 81.6425 118.44C82.0778 118.321 82.5648 118.34 83.1038 118.499C83.4833 118.611 83.8076 118.791 84.0767 119.04C84.3432 119.283 84.544 119.582 84.6791 119.935C84.8115 120.284 84.8721 120.673 84.8609 121.102L84.8898 121.445L84.1296 124.024L83.2325 123.772L83.8064 121.825C83.9228 121.43 83.9512 121.082 83.8918 120.78C83.8286 120.476 83.6989 120.224 83.5027 120.022C83.3066 119.819 83.0662 119.676 82.7816 119.592C82.4628 119.498 82.1654 119.479 81.8894 119.534C81.6133 119.588 81.3711 119.731 81.1626 119.963C80.9515 120.189 80.7838 120.513 80.6597 120.934L80.1747 122.58L87.5639 124.758L87.24 125.857L78.9514 123.413ZM88.6681 121.012L84.3168 121.92L84.6484 120.774L88.9454 119.819L89.0137 119.839L88.6681 121.012Z" fill="black"/>
<path d="M83.6594 110.948L91.4025 114.784L90.894 115.81L83.1509 111.974L83.6594 110.948Z" fill="black"/>
<path d="M89.9183 102.348L94.5738 109.315L93.8818 110.258L88.8656 102.489L89.3117 101.881L89.9183 102.348ZM97.6857 105.076L89.6408 102.726L89.0131 102.288L89.4592 101.68L98.3811 104.129L97.6857 105.076ZM95.0193 103.303L95.7751 103.858L92.9021 107.771L92.1462 107.216L95.0193 103.303Z" fill="black"/>
<path d="M95.8406 94.5386L99.5998 95.6111L98.929 91.7598L99.9217 90.8667L100.754 95.8737L105.75 97.2469L104.748 98.148L100.906 97.0626L101.581 100.998L100.579 101.899L99.7395 96.7867L94.8479 95.4317L95.8406 94.5386Z" fill="black"/>
<path d="M105.83 86.8841L110.415 94.2085L109.445 94.8163L104.859 87.4919L105.83 86.8841Z" fill="black"/>
<path d="M120.69 88.2929L121.041 89.1561L115.619 91.3594L115.269 90.4961L120.69 88.2929ZM117.924 81.992L115.872 91.2566L115.218 91.5225L114.896 90.7307L116.951 81.4904L117.611 81.2222L117.924 81.992ZM117.16 81.4055L117.513 82.2742L112.389 84.3568L112.036 83.4881L117.16 81.4055Z" fill="black"/>
<path d="M148.322 81.6116C148.361 81.4298 148.45 81.2891 148.589 81.1896C148.733 81.087 148.913 81.0591 149.129 81.1059C149.346 81.1527 149.497 81.252 149.581 81.4038C149.67 81.5527 149.696 81.718 149.656 81.8997C149.618 82.0776 149.527 82.2159 149.384 82.3146C149.246 82.4142 149.068 82.4405 148.851 82.3938C148.635 82.347 148.482 82.2492 148.392 82.1004C148.307 81.9524 148.284 81.7895 148.322 81.6116Z" fill="black"/>
<path d="M181.392 97.2977L175.124 103.247L174.348 102.429L180.615 96.4798L181.392 97.2977ZM183.304 99.3122L182.624 99.9577L178.027 95.1152L178.707 94.4696L183.304 99.3122Z" fill="black"/>
<path d="M187.087 104.411L188.593 106.843C188.935 107.394 189.139 107.912 189.206 108.397C189.276 108.884 189.207 109.329 189 109.732C188.799 110.136 188.459 110.486 187.982 110.782C187.645 110.99 187.295 111.112 186.93 111.147C186.571 111.183 186.215 111.134 185.861 110.999C185.513 110.865 185.183 110.651 184.87 110.356L184.595 110.149L183.18 107.864L183.966 107.363L185.034 109.089C185.251 109.438 185.492 109.692 185.757 109.849C186.025 110.004 186.3 110.076 186.581 110.064C186.863 110.053 187.129 109.969 187.382 109.813C187.664 109.638 187.877 109.429 188.02 109.187C188.164 108.945 188.218 108.669 188.185 108.359C188.157 108.051 188.027 107.71 187.796 107.336L186.893 105.878L180.343 109.934L179.74 108.961L187.087 104.411ZM182.4 113.254L184.624 109.406L185.257 110.417L183.104 114.256L183.043 114.294L182.4 113.254Z" fill="black"/>
<path d="M193.241 116.229L185.22 119.444L184.794 118.381L192.815 115.166L193.241 116.229Z" fill="black"/>
<path d="M195.479 126.627L187.182 125.453L186.941 124.309L196.076 125.749L196.231 126.487L195.479 126.627ZM188.267 130.599L195.382 126.168L196.127 125.993L196.283 126.73L188.51 131.748L188.267 130.599ZM191.367 129.793L190.449 129.987L189.447 125.237L190.365 125.043L191.367 129.793Z" fill="black"/>
<path d="M197.353 136.248L194.047 138.335L197.365 140.402L197.369 141.738L193.082 139.021L188.728 141.829L188.724 140.482L192.095 138.341L188.711 136.221L188.707 134.874L193.078 137.656L197.349 134.913L197.353 136.248Z" fill="black"/>
<path d="M196.399 148.797L187.883 147.332L188.077 146.204L196.593 147.668L196.399 148.797Z" fill="black"/>
<path d="M185.444 158.934L184.567 158.62L186.538 153.111L187.415 153.424L185.444 158.934ZM191.984 161.073L186.446 153.368L186.684 152.703L187.489 152.991L193.007 160.682L192.767 161.353L191.984 161.073ZM192.931 160.894L192.048 160.578L193.911 155.37L194.794 155.686L192.931 160.894Z" fill="black"/>
<path d="M155.042 195.501L152.378 187.28L153.451 186.933L156.115 195.153L155.042 195.501ZM152.4 196.357L152.111 195.465L158.462 193.407L158.751 194.299L152.4 196.357Z" fill="black"/>
</svg>
